<svg width="24" height="24" viewBox="0 0 24 24" fill="none" xmlns="http://www.w3.org/2000/svg">
<g clip-path="url(#clip0_26_85)">
<rect width="24" height="24" fill="#2A4835"/>
<path d="M8.97 21.42C7.97 21.42 7.21 21.15 6.69 20.61C6.17 20.05 5.91 19.28 5.91 18.3C5.91 17.12 6.08 15.94 6.42 14.76C6.78 13.58 7.21 12.44 7.71 11.34C8.23 10.22 8.74 9.18 9.24 8.22C9.76 7.24 10.18 6.38 10.5 5.64C10.68 5.22 10.77 4.86 10.77 4.56C10.77 4.12 10.59 3.9 10.23 3.9C9.99 3.9 9.64 4.07 9.18 4.41C8.74 4.73 8.31 5.19 7.89 5.79C6.99 7.05 6.3 8.23 5.82 9.33C5.34 10.43 5.1 11.35 5.1 12.09C5.1 12.43 5.16 12.72 5.28 12.96C5.32 13.02 5.34 13.11 5.34 13.23C5.34 13.39 5.25 13.47 5.07 13.47C4.89 13.47 4.67 13.37 4.41 13.17C4.09 12.91 3.85 12.59 3.69 12.21C3.55 11.83 3.48 11.4 3.48 10.92C3.48 10.26 3.6 9.56 3.84 8.82C4.1 8.08 4.44 7.36 4.86 6.66C5.28 5.94 5.76 5.31 6.3 4.77C6.94 4.13 7.64 3.62 8.4 3.24C9.18 2.86 9.82 2.67 10.32 2.67C11.54 2.67 12.49 2.92 13.17 3.42C13.85 3.92 14.19 4.53 14.19 5.25C14.19 5.49 14.14 5.76 14.04 6.06C13.74 6.94 13.33 7.95 12.81 9.09C12.31 10.21 11.79 11.37 11.25 12.57C10.73 13.77 10.28 14.93 9.9 16.05C9.54 17.17 9.36 18.16 9.36 19.02C9.36 19.34 9.4 19.6 9.48 19.8C9.58 19.98 9.73 20.07 9.93 20.07C10.35 20.07 10.81 19.8 11.31 19.26C11.81 18.72 12.32 18.01 12.84 17.13C13.36 16.25 13.86 15.29 14.34 14.25C14.84 13.21 15.28 12.18 15.66 11.16C16.04 10.14 16.34 9.23 16.56 8.43C16.8 7.61 16.92 6.99 16.92 6.57C16.92 6.25 16.88 5.92 16.8 5.58C16.74 5.22 16.65 4.91 16.53 4.65C16.41 4.39 16.28 4.26 16.14 4.26C15.96 4.26 15.87 4.22 15.87 4.14C15.87 4 15.99 3.93 16.23 3.93C16.51 3.93 16.91 4.01 17.43 4.17C17.97 4.31 18.49 4.53 18.99 4.83C19.51 5.15 19.87 5.51 20.07 5.91C20.27 6.31 20.37 6.74 20.37 7.2C20.37 7.68 20.29 8.17 20.13 8.67C19.97 9.17 19.81 9.65 19.65 10.11C19.41 10.81 19.02 11.65 18.48 12.63C17.96 13.59 17.34 14.58 16.62 15.6C15.9 16.62 15.11 17.57 14.25 18.45C13.41 19.33 12.54 20.05 11.64 20.61C10.74 21.15 9.85 21.42 8.97 21.42Z" fill="white"/>
</g>
<defs>
<clipPath id="clip0_26_85">
<rect width="24" height="24" fill="white"/>
</clipPath>
</defs>
</svg>
