<svg width="70" height="70" viewBox="0 0 70 70" fill="none" xmlns="http://www.w3.org/2000/svg">
<rect width="70" height="70" fill="white"/>
<path d="M8.8456 37.3931C8.92598 36.1474 10.1116 35.2661 11.3342 35.5188C15.4889 36.3773 24.7035 38 35 38C45.2965 38 54.5111 36.3773 58.6658 35.5188C59.8884 35.2661 61.074 36.1474 61.1544 37.3932L62.8627 63.8712C62.937 65.0241 62.022 66 60.8668 66H9.13319C7.97796 66 7.06296 65.0241 7.13734 63.8712L8.8456 37.3931Z" stroke="#6C757D" stroke-width="2" stroke-linejoin="round"/>
<path d="M58 36C56 23.4315 48.5 6 35 6C21.5 6 14 23.4315 12 36" stroke="#6C757D" stroke-width="2"/>
<path d="M55.9429 43.0191C56.4274 42.3691 55.932 41.5 55.1213 41.5C54.7781 41.5 54.4584 41.6688 54.2504 41.9419C53.7527 42.5953 53.124 43.3047 52.3368 44.0176C49.7556 46.3554 45.3273 48.8595 37.8669 49.3954V48.5C37.8669 47.9477 37.4192 47.5 36.8669 47.5H32.8669C32.3146 47.5 31.8669 47.9477 31.8669 48.5V49.3954C24.4065 48.8595 19.9782 46.3554 17.397 44.0176C16.6098 43.3047 15.9811 42.5953 15.4834 41.9419C15.2754 41.6688 14.9557 41.5 14.6124 41.5C13.8018 41.5 13.3064 42.3691 13.7909 43.0191C16.2101 46.2641 21.3883 50.6843 31.8669 51.4002V54.5C31.8669 55.0523 32.3146 55.5 32.8669 55.5H36.8669C37.4192 55.5 37.8669 55.0523 37.8669 54.5V51.4002C48.3455 50.6843 53.5237 46.2641 55.9429 43.0191Z" fill="#6C757D"/>
</svg>
