<svg width="70" height="70" viewBox="0 0 70 70" fill="none" xmlns="http://www.w3.org/2000/svg">
<rect width="70" height="70" fill="white"/>
<path d="M28.5 4L29.4945 3.89532C29.4409 3.38637 29.0118 3 28.5 3V4ZM26 4V3C25.5023 3 25.0804 3.36593 25.0101 3.85858L26 4ZM35.5 17.5L34.9453 18.3321C35.2812 18.556 35.7188 18.556 36.0547 18.3321L35.5 17.5ZM42.5 4V3C41.9882 3 41.5591 3.38637 41.5055 3.89532L42.5 4ZM45 4L45.9899 3.85858C45.9196 3.36593 45.4977 3 45 3V4ZM45.9867 9.16631L46.966 8.96362L46.966 8.96362L45.9867 9.16631ZM45.8961 23.5835L46.7898 24.0321L46.7898 24.0321L45.8961 23.5835ZM46.909 37.9496L46.0121 38.3918L46.0121 38.3918L46.909 37.9496ZM56 62.5L56.3807 63.4247C56.8376 63.2366 57.0886 62.743 56.9715 62.263L56 62.5ZM15 62.5L14.0285 62.263C13.9114 62.743 14.1624 63.2366 14.6193 63.4247L15 62.5ZM24.091 37.9496L24.9879 38.3918L24.9879 38.3918L24.091 37.9496ZM25.1039 23.5835L25.9976 23.1349L25.9976 23.1349L25.1039 23.5835ZM25.0133 9.16631L25.9925 9.36899L25.9925 9.36899L25.0133 9.16631ZM28.5 3H26V5H28.5V3ZM36.0547 16.6679C33.3235 14.8471 31.6676 11.719 30.6945 8.92148C30.2134 7.53836 29.912 6.2729 29.7312 5.35385C29.6409 4.89509 29.5812 4.52468 29.5442 4.27156C29.5257 4.14506 29.513 4.04801 29.505 3.98405C29.501 3.95208 29.4983 3.9284 29.4965 3.91345C29.4957 3.90598 29.4951 3.90069 29.4948 3.89765C29.4946 3.89613 29.4945 3.89517 29.4944 3.89478C29.4944 3.89458 29.4944 3.89453 29.4944 3.89462C29.4944 3.89466 29.4945 3.89484 29.4945 3.89486C29.4945 3.89507 29.4945 3.89532 28.5 4C27.5055 4.10468 27.5055 4.105 27.5056 4.10536C27.5056 4.10553 27.5056 4.10592 27.5057 4.10625C27.5057 4.10692 27.5058 4.10773 27.5059 4.10869C27.5061 4.1106 27.5064 4.11309 27.5067 4.11615C27.5074 4.12227 27.5083 4.13067 27.5096 4.1413C27.512 4.16255 27.5156 4.19269 27.5204 4.23128C27.53 4.30844 27.5446 4.4194 27.5652 4.56047C27.6063 4.84251 27.6716 5.24553 27.7688 5.7399C27.963 6.7271 28.2866 8.08664 28.8055 9.57852C29.8324 12.531 31.6765 16.1529 34.9453 18.3321L36.0547 16.6679ZM36.0547 18.3321C39.3235 16.1529 41.1676 12.531 42.1945 9.57852C42.7134 8.08664 43.037 6.7271 43.2312 5.7399C43.3284 5.24553 43.3937 4.84251 43.4348 4.56047C43.4554 4.4194 43.47 4.30844 43.4796 4.23128C43.4844 4.19269 43.488 4.16255 43.4904 4.1413C43.4917 4.13067 43.4926 4.12227 43.4933 4.11615C43.4936 4.11309 43.4939 4.1106 43.4941 4.10869C43.4942 4.10773 43.4943 4.10692 43.4943 4.10625C43.4944 4.10592 43.4944 4.10553 43.4944 4.10536C43.4945 4.105 43.4945 4.10468 42.5 4C41.5055 3.89532 41.5055 3.89507 41.5055 3.89486C41.5055 3.89484 41.5056 3.89466 41.5056 3.89462C41.5056 3.89453 41.5056 3.89458 41.5056 3.89478C41.5055 3.89517 41.5054 3.89613 41.5052 3.89765C41.5049 3.90069 41.5043 3.90598 41.5035 3.91345C41.5017 3.9284 41.499 3.95208 41.495 3.98405C41.487 4.04801 41.4743 4.14506 41.4558 4.27156C41.4188 4.52468 41.3591 4.89509 41.2688 5.35385C41.088 6.2729 40.7866 7.53836 40.3055 8.92148C39.3324 11.719 37.6765 14.8471 34.9453 16.6679L36.0547 18.3321ZM42.5 5H45V3H42.5V5ZM44.0101 4.14142C44.1995 5.46754 44.5946 7.37414 45.0075 9.36899L46.966 8.96362C46.5474 6.94111 46.1684 5.10798 45.9899 3.85858L44.0101 4.14142ZM45.0075 9.36899C45.3653 11.0978 45.7403 12.91 46.0262 14.5413C46.3152 16.19 46.5 17.5844 46.5 18.5H48.5C48.5 17.393 48.2853 15.8459 47.9962 14.1961C47.704 12.5289 47.3224 10.6855 46.966 8.96362L45.0075 9.36899ZM46.5 18.5C46.5 20.1157 45.8413 21.4637 45.0024 23.1349L46.7898 24.0321C47.5983 22.4217 48.5 20.6614 48.5 18.5H46.5ZM45.0024 23.1349C44.0845 24.9635 43 27.0984 43 30H45C45 27.623 45.866 25.8724 46.7898 24.0321L45.0024 23.1349ZM43 30C43 31.2092 43.3458 32.4549 43.8748 33.7932C44.4037 35.1314 45.1518 36.647 46.0121 38.3918L47.8059 37.5074C46.9335 35.738 46.2271 34.3037 45.7347 33.058C45.2424 31.8125 45 30.8405 45 30H43ZM46.0121 38.3918C48.4946 43.4267 52.1039 50.7461 55.0285 62.737L56.9715 62.263C53.9955 50.0614 50.3114 42.5889 47.8059 37.5074L46.0121 38.3918ZM56 62.5C55.6193 61.5753 55.6194 61.5752 55.6196 61.5752C55.6196 61.5752 55.6197 61.5751 55.6198 61.5751C55.6198 61.5751 55.6197 61.5751 55.6195 61.5752C55.6191 61.5754 55.6181 61.5758 55.6167 61.5764C55.6137 61.5776 55.6088 61.5796 55.6018 61.5824C55.5878 61.588 55.5657 61.5969 55.5356 61.6087C55.4755 61.6323 55.3836 61.6679 55.261 61.7138C55.0158 61.8055 54.6483 61.9381 54.1681 62.0982C53.2077 62.4184 51.7975 62.8478 50.0154 63.2779C46.4495 64.1387 41.4046 65 35.5 65V67C41.5954 67 46.8005 66.1113 50.4846 65.2221C52.3275 64.7772 53.7923 64.3316 54.8006 63.9956C55.3048 63.8275 55.6951 63.6867 55.9617 63.587C56.095 63.5372 56.1973 63.4976 56.2676 63.4699C56.3027 63.4561 56.3298 63.4453 56.3487 63.4377C56.3582 63.4339 56.3656 63.4309 56.3709 63.4287C56.3736 63.4276 56.3758 63.4267 56.3774 63.4261C56.3782 63.4257 56.3789 63.4254 56.3795 63.4252C56.3797 63.4251 56.3801 63.425 56.3802 63.4249C56.3805 63.4248 56.3807 63.4247 56 62.5ZM15 62.5C14.6193 63.4247 14.6195 63.4248 14.6198 63.4249C14.6199 63.425 14.6203 63.4251 14.6205 63.4252C14.6211 63.4254 14.6218 63.4257 14.6226 63.4261C14.6242 63.4267 14.6264 63.4276 14.6291 63.4287C14.6344 63.4309 14.6418 63.4339 14.6513 63.4377C14.6702 63.4453 14.6973 63.4561 14.7324 63.4699C14.8027 63.4976 14.905 63.5372 15.0383 63.587C15.3049 63.6867 15.6952 63.8275 16.1994 63.9956C17.2077 64.3316 18.6725 64.7772 20.5154 65.2221C24.1995 66.1113 29.4046 67 35.5 67V65C29.5954 65 24.5505 64.1387 20.9846 63.2779C19.2025 62.8478 17.7923 62.4184 16.8319 62.0982C16.3517 61.9381 15.9842 61.8055 15.739 61.7138C15.6164 61.6679 15.5245 61.6323 15.4644 61.6087C15.4343 61.5969 15.4122 61.588 15.3982 61.5824C15.3912 61.5796 15.3863 61.5776 15.3833 61.5764C15.3819 61.5758 15.3809 61.5754 15.3805 61.5752C15.3803 61.5751 15.3802 61.5751 15.3802 61.5751C15.3803 61.5751 15.3804 61.5752 15.3804 61.5752C15.3806 61.5752 15.3807 61.5753 15 62.5ZM23.1941 37.5074C20.6886 42.5889 17.0045 50.0614 14.0285 62.263L15.9715 62.737C18.8961 50.7461 22.5054 43.4267 24.9879 38.3918L23.1941 37.5074ZM26 30C26 30.8405 25.7576 31.8125 25.2653 33.058C24.7729 34.3037 24.0665 35.738 23.1941 37.5074L24.9879 38.3918C25.8482 36.647 26.5963 35.1314 27.1252 33.7932C27.6542 32.4549 28 31.2092 28 30H26ZM24.2102 24.0321C25.134 25.8724 26 27.623 26 30H28C28 27.0984 26.9155 24.9635 25.9976 23.1349L24.2102 24.0321ZM22.5 18.5C22.5 20.6614 23.4017 22.4217 24.2102 24.0321L25.9976 23.1349C25.1587 21.4637 24.5 20.1157 24.5 18.5H22.5ZM24.034 8.96362C23.6776 10.6855 23.296 12.5289 23.0038 14.1961C22.7147 15.8459 22.5 17.393 22.5 18.5H24.5C24.5 17.5844 24.6848 16.19 24.9738 14.5413C25.2597 12.91 25.6347 11.0978 25.9925 9.36899L24.034 8.96362ZM25.0101 3.85858C24.8316 5.10798 24.4526 6.94111 24.034 8.96362L25.9925 9.36899C26.4054 7.37414 26.8005 5.46754 26.9899 4.14142L25.0101 3.85858Z" fill="#6C757D"/>
</svg>
