<svg width="70" height="70" viewBox="0 0 70 70" fill="none" xmlns="http://www.w3.org/2000/svg">
<rect width="70" height="70" fill="white"/>
<path d="M20.2459 14.8361C22.9621 14.8361 25.1639 12.6342 25.1639 9.91803C25.1639 7.20188 22.9621 5 20.2459 5C17.5297 5 15.3279 7.20188 15.3279 9.91803C15.3279 12.6342 17.5297 14.8361 20.2459 14.8361Z" stroke="#6C757D" stroke-width="2" stroke-linejoin="round"/>
<path d="M50.2459 34.5082C52.9621 34.5082 55.1639 32.3063 55.1639 29.5902C55.1639 26.874 52.9621 24.6721 50.2459 24.6721C47.5297 24.6721 45.3279 26.874 45.3279 29.5902C45.3279 32.3063 47.5297 34.5082 50.2459 34.5082Z" stroke="#6C757D" stroke-width="2" stroke-linejoin="round"/>
<path d="M20.2459 23.6885C18.7705 22.377 15.8197 20.2459 11.3934 20.7377C6.47541 21.2842 5 24.6721 5 28.6066C5 37.459 20.2459 45.3279 20.2459 45.3279C20.2459 45.3279 35.4918 37.459 35.4918 28.6066C35.4918 24.6721 34.0164 21.2842 29.0984 20.7377C24.6721 20.2459 21.7213 22.377 20.2459 23.6885Z" stroke="#6C757D" stroke-width="2" stroke-linejoin="round"/>
<path d="M41.3934 40.4098C45.8197 39.918 48.7705 42.0492 50.2459 43.3607C51.7213 42.0492 54.6721 39.918 59.0984 40.4098C64.0164 40.9563 65.4918 44.3443 65.4918 48.2787C65.4918 57.1311 50.2459 65 50.2459 65C50.2459 65 35 57.1311 35 48.2787C35 44.3443 36.4754 40.9563 41.3934 40.4098Z" stroke="#6C757D" stroke-width="2" stroke-linejoin="round"/>
<path d="M19.2623 15.8033C19.2623 15.26 19.7027 14.8197 20.2459 14.8197C20.7891 14.8197 21.2295 15.26 21.2295 15.8033V21.7377C21.2295 22.2809 20.7891 22.7213 20.2459 22.7213C19.7027 22.7213 19.2623 22.2809 19.2623 21.7377V15.8033Z" fill="#6C757D"/>
<path d="M50.2459 34.4918C49.7027 34.4918 49.2623 34.9322 49.2623 35.4754V41.4098C49.2623 41.9531 49.7027 42.3934 50.2459 42.3934C50.7891 42.3934 51.2295 41.9531 51.2295 41.4098V35.4754C51.2295 34.9322 50.7891 34.4918 50.2459 34.4918Z" fill="#6C757D"/>
</svg>
