<svg width="138" height="19" viewBox="0 0 138 19" fill="none" xmlns="http://www.w3.org/2000/svg">
<path d="M0.888 13.752H2.52C2.536 14.024 2.6 14.36 2.712 14.76C2.824 15.144 3.04 15.52 3.36 15.888C3.68 16.256 4.144 16.576 4.752 16.848C5.36 17.104 6.168 17.232 7.176 17.232C8.44 17.232 9.448 16.992 10.2 16.512C10.968 16.032 11.352 15.272 11.352 14.232C11.352 13.4 11.112 12.736 10.632 12.24C10.152 11.744 9.544 11.328 8.808 10.992C8.088 10.64 7.304 10.328 6.456 10.056C5.608 9.784 4.816 9.456 4.08 9.072C3.36 8.688 2.76 8.208 2.28 7.632C1.8 7.056 1.56 6.296 1.56 5.352C1.56 4.632 1.704 3.992 1.992 3.432C2.296 2.872 2.696 2.408 3.192 2.04C3.704 1.672 4.288 1.392 4.944 1.2C5.616 1.008 6.32 0.912 7.056 0.912C7.76 0.912 8.432 1 9.072 1.176C9.728 1.336 10.312 1.584 10.824 1.92C11.336 2.24 11.76 2.64 12.096 3.12C12.432 3.584 12.648 4.112 12.744 4.704H11.112C10.984 3.76 10.552 3.072 9.816 2.64C9.096 2.192 8.216 1.968 7.176 1.968C6.552 1.968 6 2.048 5.52 2.208C5.04 2.352 4.632 2.552 4.296 2.808C3.976 3.048 3.728 3.336 3.552 3.672C3.392 4.008 3.312 4.368 3.312 4.752C3.312 5.44 3.56 5.992 4.056 6.408C4.552 6.824 5.168 7.192 5.904 7.512C6.656 7.832 7.464 8.136 8.328 8.424C9.208 8.712 10.016 9.072 10.752 9.504C11.504 9.92 12.128 10.448 12.624 11.088C13.12 11.712 13.368 12.52 13.368 13.512C13.368 14.232 13.224 14.888 12.936 15.48C12.648 16.072 12.24 16.576 11.712 16.992C11.184 17.408 10.544 17.728 9.792 17.952C9.056 18.176 8.224 18.288 7.296 18.288C6.384 18.288 5.544 18.184 4.776 17.976C4.008 17.752 3.336 17.448 2.76 17.064C2.2 16.664 1.752 16.184 1.416 15.624C1.096 15.064 0.92 14.44 0.888 13.752ZM23.664 9.648V18H21.48V1.2H23.664V8.544H33.72V1.2H35.904V18H33.72V9.648H23.664ZM43.5797 9.6C43.5797 8.688 43.7477 7.72 44.0837 6.696C44.4357 5.672 44.9797 4.736 45.7157 3.888C46.4517 3.024 47.3877 2.312 48.5237 1.752C49.6597 1.192 51.0197 0.912 52.6037 0.912C54.2037 0.912 55.5877 1.2 56.7557 1.776C57.9397 2.336 58.9157 3.048 59.6837 3.912C60.4517 4.776 61.0197 5.72 61.3877 6.744C61.7557 7.752 61.9397 8.704 61.9397 9.6C61.9397 10.192 61.8517 10.816 61.6757 11.472C61.5157 12.128 61.2677 12.784 60.9317 13.44C60.6117 14.08 60.1957 14.696 59.6837 15.288C59.1717 15.864 58.5637 16.376 57.8597 16.824C57.1717 17.272 56.3877 17.632 55.5077 17.904C54.6437 18.16 53.6757 18.288 52.6037 18.288C51.0197 18.288 49.6597 18.008 48.5237 17.448C47.3877 16.872 46.4517 16.152 45.7157 15.288C44.9797 14.424 44.4357 13.488 44.0837 12.48C43.7477 11.456 43.5797 10.496 43.5797 9.6ZM45.9317 9.6C45.9317 10.72 46.0997 11.752 46.4357 12.696C46.7877 13.624 47.2597 14.424 47.8517 15.096C48.4597 15.768 49.1717 16.296 49.9877 16.68C50.8037 17.048 51.6917 17.232 52.6517 17.232C53.5957 17.232 54.4837 17.048 55.3157 16.68C56.1637 16.296 56.8997 15.768 57.5237 15.096C58.1637 14.424 58.6677 13.624 59.0357 12.696C59.4037 11.752 59.5877 10.72 59.5877 9.6C59.5877 8.48 59.4037 7.456 59.0357 6.528C58.6677 5.584 58.1637 4.776 57.5237 4.104C56.8997 3.432 56.1637 2.912 55.3157 2.544C54.4837 2.16 53.5957 1.968 52.6517 1.968C51.6917 1.968 50.8037 2.16 49.9877 2.544C49.1717 2.912 48.4597 3.432 47.8517 4.104C47.2597 4.776 46.7877 5.584 46.4357 6.528C46.0997 7.456 45.9317 8.48 45.9317 9.6ZM71.8093 10.992V18H69.6253V1.2H75.2413C76.1693 1.2 76.9773 1.336 77.6653 1.608C78.3533 1.88 78.9213 2.248 79.3693 2.712C79.8333 3.16 80.1773 3.696 80.4013 4.32C80.6253 4.928 80.7373 5.568 80.7373 6.24C80.7373 6.944 80.6093 7.608 80.3533 8.232C80.0973 8.84 79.7133 9.384 79.2013 9.864C78.7053 10.328 78.0813 10.696 77.3293 10.968C76.5773 11.24 75.7133 11.376 74.7373 11.376C74.1613 11.376 73.6333 11.344 73.1533 11.28C72.6733 11.2 72.2253 11.104 71.8093 10.992ZM71.8093 2.256V10.008C72.1453 10.136 72.5213 10.224 72.9373 10.272C73.3533 10.304 73.8093 10.32 74.3053 10.32C75.0253 10.32 75.6413 10.2 76.1533 9.96C76.6653 9.72 77.0893 9.408 77.4253 9.024C77.7613 8.64 78.0013 8.216 78.1453 7.752C78.3053 7.272 78.3853 6.8 78.3853 6.336C78.3853 5.856 78.2973 5.376 78.1213 4.896C77.9613 4.4 77.7133 3.96 77.3773 3.576C77.0413 3.176 76.6173 2.856 76.1053 2.616C75.5933 2.376 75.0013 2.256 74.3293 2.256H71.8093ZM90.1281 10.992V18H87.9441V1.2H93.5601C94.4881 1.2 95.2961 1.336 95.9841 1.608C96.6721 1.88 97.2401 2.248 97.6881 2.712C98.1521 3.16 98.4961 3.696 98.7201 4.32C98.9441 4.928 99.0561 5.568 99.0561 6.24C99.0561 6.944 98.9281 7.608 98.6721 8.232C98.4161 8.84 98.0321 9.384 97.5201 9.864C97.0241 10.328 96.4001 10.696 95.6481 10.968C94.8961 11.24 94.0321 11.376 93.0561 11.376C92.4801 11.376 91.9521 11.344 91.4721 11.28C90.9921 11.2 90.5441 11.104 90.1281 10.992ZM90.1281 2.256V10.008C90.4641 10.136 90.8401 10.224 91.2561 10.272C91.6721 10.304 92.1281 10.32 92.6241 10.32C93.3441 10.32 93.9601 10.2 94.4721 9.96C94.9841 9.72 95.4081 9.408 95.7441 9.024C96.0801 8.64 96.3201 8.216 96.4641 7.752C96.6241 7.272 96.7041 6.8 96.7041 6.336C96.7041 5.856 96.6161 5.376 96.4401 4.896C96.2801 4.4 96.0321 3.96 95.6961 3.576C95.3601 3.176 94.9361 2.856 94.4241 2.616C93.9121 2.376 93.3201 2.256 92.6481 2.256H90.1281ZM106.263 1.2H117.111V2.52H108.447V8.544H115.887V9.648H108.447V16.68H117.111V18H106.263V1.2ZM124.3 1.2H129.748C130.82 1.2 131.708 1.352 132.412 1.656C133.116 1.944 133.668 2.312 134.068 2.76C134.484 3.192 134.772 3.664 134.932 4.176C135.108 4.688 135.196 5.16 135.196 5.592C135.196 6.072 135.116 6.568 134.956 7.08C134.796 7.576 134.54 8.04 134.188 8.472C133.836 8.904 133.38 9.264 132.82 9.552C132.276 9.84 131.62 10.008 130.852 10.056V10.152L131.092 10.272C131.284 10.368 131.444 10.488 131.572 10.632C131.716 10.776 131.892 11.008 132.1 11.328C132.324 11.648 132.62 12.104 132.988 12.696C133.356 13.272 133.876 14.048 134.548 15.024C134.772 15.36 134.988 15.664 135.196 15.936C135.404 16.192 135.62 16.416 135.844 16.608C136.068 16.784 136.308 16.92 136.564 17.016C136.82 17.112 137.116 17.16 137.452 17.16C137.532 17.16 137.612 17.16 137.692 17.16C137.772 17.144 137.852 17.128 137.932 17.112V18C137.708 18.128 137.484 18.208 137.26 18.24C137.036 18.272 136.748 18.288 136.396 18.288C135.916 18.288 135.5 18.224 135.148 18.096C134.812 17.968 134.508 17.8 134.236 17.592C133.964 17.368 133.708 17.104 133.468 16.8C133.244 16.496 133.012 16.16 132.772 15.792L130.876 12.984C130.588 12.536 130.34 12.16 130.132 11.856C129.924 11.552 129.7 11.304 129.46 11.112C129.22 10.92 128.948 10.784 128.644 10.704C128.356 10.624 127.988 10.584 127.54 10.584H126.484V18H124.3V1.2ZM126.484 2.256V9.504H128.956C129.596 9.504 130.156 9.392 130.636 9.168C131.132 8.944 131.548 8.656 131.884 8.304C132.22 7.936 132.468 7.536 132.628 7.104C132.804 6.656 132.892 6.216 132.892 5.784C132.892 5.272 132.796 4.8 132.604 4.368C132.428 3.936 132.164 3.568 131.812 3.264C131.46 2.944 131.036 2.696 130.54 2.52C130.06 2.344 129.516 2.256 128.908 2.256H126.484Z" fill="black"/>
</svg>
