<svg width="70" height="70" viewBox="0 0 70 70" fill="none" xmlns="http://www.w3.org/2000/svg">
<rect width="70" height="70" fill="white"/>
<path d="M21.4444 26.0741C21.9754 20.9687 22.6072 17.611 23.2114 14.4003C23.4838 12.9526 23.7506 11.5347 24 10H35H46C46.2494 11.5347 46.5162 12.9526 46.7886 14.4003C47.3928 17.611 48.0246 20.9687 48.5556 26.0741C49.3259 33.4815 53 62 53 62C50 64 42 64 38.9259 63C38.9259 63 36.5 31 35 24.5185C33.5 31 31.0741 63 31.0741 63C28 64 20 64 17 62C17 62 20.6741 33.4815 21.4444 26.0741Z" stroke="#6C757D" stroke-width="2" stroke-linejoin="round"/>
<path d="M24 6H46V10H24V6Z" stroke="#6C757D" stroke-width="2" stroke-linejoin="round"/>
</svg>
